<svg width="18" height="22" xmlns="http://www.w3.org/2000/svg"><path d="M15.034 12.127c.029 3.193 2.93 4.249 2.966 4.26-.017.075-.454 1.524-1.543 2.995-.909 1.295-1.86 2.561-3.373 2.584-1.47.033-1.964-.824-3.649-.824-1.7 0-2.227.801-3.636.857-1.44.05-2.54-1.383-3.483-2.667C.434 16.712-1.032 11.946.933 8.704c.952-1.59 2.689-2.615 4.544-2.642 1.443-.028 2.78.928 3.667.928.869 0 2.524-1.144 4.23-.973.713.02 2.744.27 4.055 2.09-.106.06-2.42 1.356-2.395 4.02zM11.965 3.47c-.707.914-1.84 1.612-2.942 1.522-.144-1.232.414-2.543 1.04-3.342C10.77.743 11.997.048 12.978 0c.13 1.28-.335 2.543-1.013 3.47z" fill="#FFF" fill-rule="nonzero"/></svg>