<svg width="18px" height="20px" viewBox="0 0 18 20" version="1.1" xmlns="http://www.w3.org/2000/svg" xmlns:xlink="http://www.w3.org/1999/xlink">
    <!-- Generator: Sketch 3.6.1 (26313) - http://www.bohemiancoding.com/sketch -->
    <g id="betternet-shield-icon" transform="translate(-51.000000, -25.000000)" fill="#ffffff">
        <g id="Oval-395-+-Character-2-Copy-6" transform="translate(40.000000, 15.000000)">
            <path d="M12.6425179,13.0665507 C11.7136041,13.2585507 11.0347473,14.0792464 11.0085759,15.0549565 C10.9122331,18.6493333 11.5173756,27.2533333 18.5762864,29.7544928 C19.0344005,29.9168116 19.5156002,30 20,30 C20.4843998,30 20.9655995,29.9168116 21.4237136,29.7544928 C28.4826244,27.2533333 29.0877669,18.6493333 28.9914241,15.0549565 C28.9652527,14.0792464 28.2863959,13.2585507 27.3574249,13.0665507 C24.3639407,12.4478841 22.0554847,11.0795942 21.1026852,10.4452174 C20.7739996,10.2263768 20.3913141,10 20,10 C19.6086859,10 19.2260004,10.2263768 18.8973148,10.4452174 C17.9445153,11.0795942 15.6360593,12.4478841 12.6425179,13.0665507 Z"
                  id="logo-path"></path>
        </g>
    </g>
</svg>