<svg width="18" height="21" xmlns="http://www.w3.org/2000/svg"><defs><linearGradient x1="50%" y1="0%" x2="50%" y2="100%" id="a"><stop stop-color="#1E79AF" offset="0%"/><stop stop-color="#63FFD3" offset="100%"/></linearGradient><linearGradient x1="72.038%" y1="14.446%" x2="21.59%" y2="96.562%" id="b"><stop stop-color="#DC4057" offset="0%"/><stop stop-color="#9E36BB" offset="100%"/></linearGradient><linearGradient x1="50%" y1="0%" x2="50%" y2="97.826%" id="c"><stop stop-color="#FF9676" offset="0%"/><stop stop-color="#FFD074" offset="100%"/></linearGradient><linearGradient x1="29.342%" y1="0%" x2="81.727%" y2="100%" id="d"><stop stop-color="#51C6AD" offset="0%"/><stop stop-color="#D5FFA1" offset="100%"/></linearGradient></defs><g fill-rule="nonzero" fill="none"><path d="M.788.867c-.355.116-.584.49-.584 1.057L.206 19.76c0 .56.222.93.568 1.053l9.574-9.98L.788.866" fill="url(#a)"/><path d="M.774 20.812c.248.087.56.046.898-.148l11.684-6.697-3.008-3.136-9.574 9.98" fill="url(#b)"/><path d="M13.358 13.967l3.984-2.283c.808-.465.808-1.22 0-1.684l-3.999-2.292-2.995 3.122 3.01 3.137" fill="url(#c)"/><path d="M13.343 7.708L1.673 1.019C1.34.831 1.035.787.788.867l9.56 9.963 2.994-3.122" fill="url(#d)"/></g></svg>