<svg width="36" height="23" viewBox="0 0 36 23" xmlns="http://www.w3.org/2000/svg" xmlns:xlink="http://www.w3.org/1999/xlink"><title>quotes</title><defs><path id="a" d="M14.332.194v16.46H.342V.195z"/><path id="c" d="M14.332.194v16.46H.342V.195z"/></defs><g fill="none" fill-rule="evenodd"><path d="M28.796 8.724c-3.924 0-7.105 3.196-7.105 7.138 0 3.943 3.182 7.138 7.106 7.138 3.925 0 7.105-3.195 7.105-7.138 0-3.942-3.18-7.138-7.104-7.138" fill="#E1EFEF"/><g transform="rotate(180 18 8.402)"><mask id="b" fill="#fff"><use xlink:href="#a"/></mask><path d="M13.148.194c.655 0 1.184.532 1.184 1.19 0 8.42-5.745 15.27-12.806 15.27-.654 0-1.184-.53-1.184-1.19 0-.655.53-1.188 1.184-1.188 5.756 0 10.438-5.784 10.438-12.892 0-.658.53-1.19 1.184-1.19" fill="#E1EFEF" mask="url(#b)"/></g><g><path d="M7.796 8.724C3.872 8.724.69 11.92.69 15.862.69 19.805 3.873 23 7.797 23c3.925 0 7.105-3.195 7.105-7.138 0-3.942-3.18-7.138-7.104-7.138" fill="#E1EFEF"/><g transform="rotate(180 7.5 8.402)"><mask id="d" fill="#fff"><use xlink:href="#c"/></mask><path d="M13.148.194c.655 0 1.184.532 1.184 1.19 0 8.42-5.745 15.27-12.806 15.27-.654 0-1.184-.53-1.184-1.19 0-.655.53-1.188 1.184-1.188 5.756 0 10.438-5.784 10.438-12.892 0-.658.53-1.19 1.184-1.19" fill="#E1EFEF" mask="url(#d)"/></g></g></g></svg>