<?xml version="1.0" standalone="no"?>
<!DOCTYPE svg PUBLIC "-//W3C//DTD SVG 20010904//EN"
 "http://www.w3.org/TR/2001/REC-SVG-20010904/DTD/svg10.dtd">
<svg version="1.0" xmlns="http://www.w3.org/2000/svg"
 width="1024.000000pt" height="1024.000000pt" viewBox="0 0 1024.000000 1024.000000"
 preserveAspectRatio="xMidYMid meet">
<metadata>
Created by potrace 1.11, written by Peter Selinger 2001-2013
</metadata>
<g transform="translate(0.000000,1024.000000) scale(0.100000,-0.100000)"
fill="#000000" stroke="none">
<path d="M4990 9104 c-81 -21 -184 -76 -371 -196 -715 -460 -1500 -792 -2319
-983 -287 -67 -381 -109 -513 -234 -118 -112 -189 -228 -238 -393 -21 -67 -23
-99 -27 -408 -17 -1310 230 -2552 697 -3515 150 -309 307 -569 488 -808 375
-494 843 -886 1380 -1155 240 -121 511 -222 703 -264 92 -19 134 -22 330 -22
255 0 336 12 552 84 305 102 600 248 898 446 370 246 684 543 963 911 354 468
647 1068 847 1738 231 772 349 1681 338 2585 -4 309 -6 341 -27 408 -49 165
-120 281 -238 393 -132 125 -226 167 -513 234 -819 191 -1604 523 -2319 983
-191 122 -291 175 -376 197 -73 19 -182 18 -255 -1z"/>
</g>
</svg>
